<svg xmlns="http://www.w3.org/2000/svg" xmlns:xlink="http://www.w3.org/1999/xlink" width="500" zoomAndPan="magnify" viewBox="0 0 375 374.999991" height="500" preserveAspectRatio="xMidYMid meet" version="1.0"><defs><clipPath id="96d1c3f24d"><path d="M 225 37.5 L 337.5 37.5 L 337.5 150 L 225 150 Z M 225 37.5 " clip-rule="nonzero"/></clipPath><clipPath id="44f447de2f"><path d="M 281.25 37.5 C 250.183594 37.5 225 62.683594 225 93.75 C 225 124.816406 250.183594 150 281.25 150 C 312.316406 150 337.5 124.816406 337.5 93.75 C 337.5 62.683594 312.316406 37.5 281.25 37.5 Z M 281.25 37.5 " clip-rule="nonzero"/></clipPath><clipPath id="5c41c74e57"><path d="M 0 0.5 L 112.5 0.5 L 112.5 113 L 0 113 Z M 0 0.5 " clip-rule="nonzero"/></clipPath><clipPath id="bcb525ce56"><path d="M 56.25 0.5 C 25.183594 0.5 0 25.683594 0 56.75 C 0 87.816406 25.183594 113 56.25 113 C 87.316406 113 112.5 87.816406 112.5 56.75 C 112.5 25.683594 87.316406 0.5 56.25 0.5 Z M 56.25 0.5 " clip-rule="nonzero"/></clipPath><clipPath id="a4f37a44cd"><rect x="0" width="113" y="0" height="113"/></clipPath><clipPath id="0acf4fce6b"><path d="M 58.09375 58.09375 L 316.90625 58.09375 L 316.90625 316.90625 L 58.09375 316.90625 Z M 58.09375 58.09375 " clip-rule="nonzero"/></clipPath><clipPath id="5db9f486a4"><path d="M 187.5 58.09375 C 116.03125 58.09375 58.09375 116.03125 58.09375 187.5 C 58.09375 258.96875 116.03125 316.90625 187.5 316.90625 C 258.96875 316.90625 316.90625 258.96875 316.90625 187.5 C 316.90625 116.03125 258.96875 58.09375 187.5 58.09375 Z M 187.5 58.09375 " clip-rule="nonzero"/></clipPath><clipPath id="be78400938"><path d="M 0.09375 0.09375 L 258.90625 0.09375 L 258.90625 258.90625 L 0.09375 258.90625 Z M 0.09375 0.09375 " clip-rule="nonzero"/></clipPath><clipPath id="774998a44f"><path d="M 129.5 0.09375 C 58.03125 0.09375 0.09375 58.03125 0.09375 129.5 C 0.09375 200.96875 58.03125 258.90625 129.5 258.90625 C 200.96875 258.90625 258.90625 200.96875 258.90625 129.5 C 258.90625 58.03125 200.96875 0.09375 129.5 0.09375 Z M 129.5 0.09375 " clip-rule="nonzero"/></clipPath><clipPath id="715c3bf047"><rect x="0" width="259" y="0" height="259"/></clipPath></defs><g clip-path="url(#96d1c3f24d)"><g clip-path="url(#44f447de2f)"><g transform="matrix(1, 0, 0, 1, 225, 37)"><g clip-path="url(#a4f37a44cd)"><g clip-path="url(#5c41c74e57)"><g clip-path="url(#bcb525ce56)"><path fill="#000000" d="M 0 0.5 L 112.5 0.5 L 112.5 113 L 0 113 Z M 0 0.5 " fill-opacity="1" fill-rule="nonzero"/></g></g></g></g></g></g><g clip-path="url(#0acf4fce6b)"><g clip-path="url(#5db9f486a4)"><g transform="matrix(1, 0, 0, 1, 58, 58)"><g clip-path="url(#715c3bf047)"><g clip-path="url(#be78400938)"><g clip-path="url(#774998a44f)"><path fill="#fa4616" d="M 0.09375 0.09375 L 258.90625 0.09375 L 258.90625 258.90625 L 0.09375 258.90625 Z M 0.09375 0.09375 " fill-opacity="1" fill-rule="nonzero"/></g></g></g></g></g></g></svg>